<?xml version="1.0" encoding="UTF-8" standalone="no" ?>
<!DOCTYPE svg PUBLIC "-//W3C//DTD SVG 1.1//EN" "http://www.w3.org/Graphics/SVG/1.1/DTD/svg11.dtd">
<svg xmlns="http://www.w3.org/2000/svg" xmlns:xlink="http://www.w3.org/1999/xlink" version="1.1" width="640" height="640" viewBox="0 0 640 640" xml:space="preserve">
<desc>Created with Fabric.js 5.3.0</desc>
<defs>
</defs>
<g transform="matrix(1.2537193661 0 0 1.2537193661 256.1267303122 161.4255381388)" id="qv9baw7talJzYnGqHib8F"  >
<path style="stroke: rgb(0,0,0); stroke-width: 4; stroke-dasharray: none; stroke-linecap: butt; stroke-dashoffset: 0; stroke-linejoin: miter; stroke-miterlimit: 4; fill: rgb(255,255,255); fill-opacity: 0; fill-rule: nonzero; opacity: 1;"  transform=" translate(0, 0)" d="M -122.32082 -108.12287 C 64.80091000000002 28.03184999999999 122.32082 108.12286 122.32082 108.12286" stroke-linecap="round" />
</g>
<g transform="matrix(1.2537193661 0 0 1.2537193661 188.371481819 156.333878112)" id="waqxmfVn9CFeg1ZbOV217"  >
<path style="stroke: rgb(0,0,0); stroke-width: 4; stroke-dasharray: none; stroke-linecap: butt; stroke-dashoffset: 0; stroke-linejoin: miter; stroke-miterlimit: 4; fill: rgb(255,255,255); fill-opacity: 0; fill-rule: nonzero; opacity: 1;"  transform=" translate(0, 0)" d="M 62.78059 98.35021 C 94.08888999999999 128.93041 -66.82123000000001 -101.14921999999999 -66.82123000000001 -101.14921999999999" stroke-linecap="round" />
</g>
<g transform="matrix(1.2537193661 0 0 1.2537193661 251.5625642467 202.0466161218)" id="cUB9vOzfduF3QfrgHuhj_"  >
<path style="stroke: rgb(0,0,0); stroke-width: 4; stroke-dasharray: none; stroke-linecap: butt; stroke-dashoffset: 0; stroke-linejoin: miter; stroke-miterlimit: 4; fill: rgb(255,255,255); fill-opacity: 0; fill-rule: nonzero; opacity: 1;"  transform=" translate(0, 0)" d="M 114.31172 135.42662 C -56.79181000000001 -104.84642 -114.31172 -135.42662 -114.31172 -135.42662" stroke-linecap="round" />
</g>
<g transform="matrix(1.2537193661 0 0 1.2537193661 503.9609476694 420.8890546373)" id="KdQDJLZ0LyQ7AtmIvtJft"  >
<path style="stroke: rgb(0,0,0); stroke-width: 4; stroke-dasharray: none; stroke-linecap: butt; stroke-dashoffset: 0; stroke-linejoin: miter; stroke-miterlimit: 4; fill: rgb(255,255,255); fill-opacity: 0; fill-rule: nonzero; opacity: 1;"  transform=" translate(0, 0)" d="M -1.82025 8.92666 C 0.36405 15.47956 1.82025 -10.003939999999998 1.82025 -10.003939999999998" stroke-linecap="round" />
</g>
<g transform="matrix(1.2537193661 0 0 1.2537193661 515.1431545299 463.5336984345)" id="uL6rhAduEjjRvF9MpMk_v"  >
<path style="stroke: rgb(0,0,0); stroke-width: 4; stroke-dasharray: none; stroke-linecap: butt; stroke-dashoffset: 0; stroke-linejoin: miter; stroke-miterlimit: 4; fill: rgb(255,255,255); fill-opacity: 0; fill-rule: nonzero; opacity: 1;"  transform=" translate(0, 0)" d="M 8.91923 21.51057 C -7.09897 -16.35064 -8.919220000000001 -21.510559999999998 -8.919220000000001 -21.510559999999998" stroke-linecap="round" />
</g>
<g transform="matrix(1.2537193661 0 0 1.2537193661 531.9752048277 506.6656142979)" id="B3RsDFHDB-3CRcFqcNV_e"  >
<path style="stroke: rgb(0,0,0); stroke-width: 4; stroke-dasharray: none; stroke-linecap: butt; stroke-dashoffset: 0; stroke-linejoin: miter; stroke-miterlimit: 4; fill: rgb(255,255,255); fill-opacity: 0; fill-rule: nonzero; opacity: 1;"  transform=" translate(0, 0)" d="M -5.23457 -15.805 C 7.871230000000001 -32.5513 4.958830000000001 19.143810000000002 4.958830000000001 19.143810000000002" stroke-linecap="round" />
</g>
<g transform="matrix(1.2537193661 0 0 1.2537193661 519.9052199834 552.772469341)" id="XmxdXzc0RZivI7-B_TzX8"  >
<path style="stroke: rgb(0,0,0); stroke-width: 4; stroke-dasharray: none; stroke-linecap: butt; stroke-dashoffset: 0; stroke-linejoin: miter; stroke-miterlimit: 4; fill: rgb(255,255,255); fill-opacity: 0; fill-rule: nonzero; opacity: 1;"  transform=" translate(0, 0)" d="M 14.53783 -18.04465 C -11.673770000000001 13.263649999999998 -14.53782 18.044659999999997 -14.53782 18.044659999999997" stroke-linecap="round" />
</g>
<g transform="matrix(1.2537193661 0 0 1.2537193661 500.8266492541 591.8263981164)" id="qdIEBKs89iiAwD66WXOCH"  >
<path style="stroke: rgb(0,0,0); stroke-width: 4; stroke-dasharray: none; stroke-linecap: butt; stroke-dashoffset: 0; stroke-linejoin: miter; stroke-miterlimit: 4; fill: rgb(255,255,255); fill-opacity: 0; fill-rule: nonzero; opacity: 1;"  transform=" translate(0, 0)" d="M 1.7798 -15.2901 C -6.2293 10.9215 1.7798 15.2901 1.7798 15.2901" stroke-linecap="round" />
</g>
<g transform="matrix(1.2537193661 0 0 1.2537193661 411.3386854548 546.8302756744)" id="_BlbPEWeAjeqaiBAPoCyI"  >
<path style="stroke: rgb(0,0,0); stroke-width: 4; stroke-dasharray: none; stroke-linecap: butt; stroke-dashoffset: 0; stroke-linejoin: miter; stroke-miterlimit: 4; fill: rgb(255,255,255); fill-opacity: 0; fill-rule: nonzero; opacity: 1;"  transform=" translate(0, 0)" d="M -71.37799 -53.68021 C -6.577079999999995 -45.67111 71.37798 53.68021 71.37798 53.68021" stroke-linecap="round" />
</g>
<g transform="matrix(1.2537193661 0 0 1.2537193661 404.8858962339 206.4128827994)" id="8tZ0iLeFoj5xq8Qf_BTaJ"  >
<path style="stroke: rgb(0,0,0); stroke-width: 4; stroke-dasharray: none; stroke-linecap: butt; stroke-dashoffset: 0; stroke-linejoin: miter; stroke-miterlimit: 4; fill: rgb(255,255,255); fill-opacity: 0; fill-rule: nonzero; opacity: 1;"  transform=" translate(0, 0)" d="M -9.12356 -72.23976 C 24.36905 -42.387660000000004 1.5064200000000003 72.23976 1.5064200000000003 72.23976" stroke-linecap="round" />
</g>
<g transform="matrix(1.2537193661 0 0 1.2537193661 503.9609476694 405.2126238676)" id="BKgSmcJGsZ8Dj0Ka9hHK8"  >
<path style="stroke: rgb(0,0,0); stroke-width: 4; stroke-dasharray: none; stroke-linecap: butt; stroke-dashoffset: 0; stroke-linejoin: miter; stroke-miterlimit: 4; fill: rgb(255,255,255); fill-opacity: 0; fill-rule: nonzero; opacity: 1;"  transform=" translate(0, 0)" d="M 0 0" stroke-linecap="round" />
</g>
<g transform="matrix(1.2537193661 0 0 1.2537193661 506.1923177458 408.3469222829)" id="9sKxUBa6qRJLzTkGYcyyn"  >
<path style="stroke: rgb(0,0,0); stroke-width: 4; stroke-dasharray: none; stroke-linecap: butt; stroke-dashoffset: 0; stroke-linejoin: miter; stroke-miterlimit: 4; fill: rgb(255,255,255); fill-opacity: 0; fill-rule: nonzero; opacity: 1;"  transform=" translate(0, 0)" d="M 0 0" stroke-linecap="round" />
</g>
<g transform="matrix(1.2537193661 0 0 1.2537193661 452.1019974324 263.510988124)" id="NzCS0EXcTyMyl3VoHBOxB"  >
<path style="stroke: rgb(0,0,0); stroke-width: 4; stroke-dasharray: none; stroke-linecap: butt; stroke-dashoffset: 0; stroke-linejoin: miter; stroke-miterlimit: 4; fill: rgb(255,255,255); fill-opacity: 0; fill-rule: nonzero; opacity: 1;"  transform=" translate(0, 0)" d="M 43.14388 116.025 C -34.03473 -122.06374 -43.14388 -116.01084 -43.14388 -116.01084" stroke-linecap="round" />
</g>
<g transform="matrix(1.2537193661 0 0 1.2537193661 373.8822148023 253.1652760556)" id="gcY0Z17U6eqXUhRPcHfGE"  >
<path style="stroke: rgb(0,0,0); stroke-width: 4; stroke-dasharray: none; stroke-linecap: butt; stroke-dashoffset: 0; stroke-linejoin: miter; stroke-miterlimit: 4; fill: rgb(255,255,255); fill-opacity: 0; fill-rule: nonzero; opacity: 1;"  transform=" translate(0, 0)" d="M 0 0" stroke-linecap="round" />
</g>
<g transform="matrix(1.2537193661 0 0 1.2537193661 383.9233801464 263.510988124)" id="osolp2MI35tffYLmppG9R"  >
<path style="stroke: rgb(0,0,0); stroke-width: 4; stroke-dasharray: none; stroke-linecap: butt; stroke-dashoffset: 0; stroke-linejoin: miter; stroke-miterlimit: 4; fill: rgb(255,255,255); fill-opacity: 0; fill-rule: nonzero; opacity: 1;"  transform=" translate(0, 0)" d="M 0 0" stroke-linecap="round" />
</g>
<g transform="matrix(1.2537193661 0 0 1.2537193661 391.6135040037 190.782996212)" id="v5G_OdBxZuCtS-iGommIe"  >
<path style="stroke: rgb(0,0,0); stroke-width: 4; stroke-dasharray: none; stroke-linecap: butt; stroke-dashoffset: 0; stroke-linejoin: miter; stroke-miterlimit: 4; fill: rgb(255,255,255); fill-opacity: 0; fill-rule: nonzero; opacity: 1;"  transform=" translate(0, 0)" d="M -8.08641 58.01522 C 21.76569 -81.05189999999999 1.1507899999999989 -56.311310000000006 1.1507899999999989 -56.311310000000006" stroke-linecap="round" />
</g>
<g transform="matrix(1.2537193661 0 0 1.2537193661 296.1105774912 431.158974829)" id="OikwZSwagP2B399KBVsI1"  >
<path style="stroke: rgb(0,0,0); stroke-width: 4; stroke-dasharray: none; stroke-linecap: butt; stroke-dashoffset: 0; stroke-linejoin: miter; stroke-miterlimit: 4; fill: rgb(255,255,255); fill-opacity: 0; fill-rule: nonzero; opacity: 1;"  transform=" translate(0, 0)" d="M -10.77728 -38.5823 C -50.82279 26.946710000000003 22.71533 38.58231 22.71533 38.58231" stroke-linecap="round" />
</g>
<g transform="matrix(1.2537193661 0 0 1.2537193661 219.8917161808 355.8590125295)" id="xrFUg9qW8MKo3iAFuWhCk"  >
<path style="stroke: rgb(0,0,0); stroke-width: 4; stroke-dasharray: none; stroke-linecap: butt; stroke-dashoffset: 0; stroke-linejoin: miter; stroke-miterlimit: 4; fill: rgb(255,255,255); fill-opacity: 0; fill-rule: nonzero; opacity: 1;"  transform=" translate(0, 0)" d="M 51.47312 23.66325 C -62.110499999999995 -6.188849999999999 -51.189 -23.663259999999998 -51.189 -23.663259999999998" stroke-linecap="round" />
</g>
<g transform="matrix(1.2537193661 0 0 1.2537193661 209.2937350375 336.4327807132)" id="hxfibTeohw6WISxN5ZM1s"  >
<path style="stroke: rgb(0,0,0); stroke-width: 4; stroke-dasharray: none; stroke-linecap: butt; stroke-dashoffset: 0; stroke-linejoin: miter; stroke-miterlimit: 4; fill: rgb(255,255,255); fill-opacity: 0; fill-rule: nonzero; opacity: 1;"  transform=" translate(0, 0)" d="M 43.01988 0.56883 C -31.24633 7.84983 -43.019890000000004 -3.07167 -43.019890000000004 -3.07167" stroke-linecap="round" />
</g>
<g transform="matrix(1.2537193661 0 0 1.2537193661 180.6200908432 257.9095885394)" id="vEYs3S_l5Bgp9sVLB1gxt"  >
<path style="stroke: rgb(0,0,0); stroke-width: 4; stroke-dasharray: none; stroke-linecap: butt; stroke-dashoffset: 0; stroke-linejoin: miter; stroke-miterlimit: 4; fill: rgb(255,255,255); fill-opacity: 0; fill-rule: nonzero; opacity: 1;"  transform=" translate(0, 0)" d="M 63.13851 62.63219 C -48.260810000000006 -78.61922999999999 -63.13851 -62.032199999999996 -63.13851 -62.032199999999996" stroke-linecap="round" />
</g>
<g transform="matrix(1.2537193661 0 0 1.2537193661 185.7381737106 229.4973968589)" id="TBipd0jzSLN3sZLc7CbLi"  >
<path style="stroke: rgb(0,0,0); stroke-width: 4; stroke-dasharray: none; stroke-linecap: butt; stroke-dashoffset: 0; stroke-linejoin: miter; stroke-miterlimit: 4; fill: rgb(255,255,255); fill-opacity: 0; fill-rule: nonzero; opacity: 1;"  transform=" translate(0, 0)" d="M 64.30843 42.17734 C -60.92479 -65.58148 -64.30843 -39.369870000000006 -64.30843 -39.369870000000006" stroke-linecap="round" />
</g>
<g transform="matrix(1.2537193661 0 0 1.2537193661 432.6993392168 420.8890546373)" id="cOENX-1K6ve4V6lNSRtDG"  >
<path style="stroke: rgb(0,0,0); stroke-width: 4; stroke-dasharray: none; stroke-linecap: butt; stroke-dashoffset: 0; stroke-linejoin: miter; stroke-miterlimit: 4; fill: rgb(255,255,255); fill-opacity: 0; fill-rule: nonzero; opacity: 1;"  transform=" translate(0, 0)" d="M -31.3083 -39.68146 C 19.658710000000003 -14.197960000000002 31.308310000000002 39.68145 31.308310000000002 39.68145" stroke-linecap="round" />
</g>
<g transform="matrix(1.2537193661 0 0 1.2537193661 431.7865060037 417.9316710205)" id="dYTTFHs91aStuXOTDjx_t"  >
<path style="stroke: rgb(0,0,0); stroke-width: 4; stroke-dasharray: none; stroke-linecap: butt; stroke-dashoffset: 0; stroke-linejoin: miter; stroke-miterlimit: 4; fill: rgb(255,255,255); fill-opacity: 0; fill-rule: nonzero; opacity: 1;"  transform=" translate(0, 0)" d="M -30.5802 -36.93527 C -16.7463 29.321839999999995 30.580209999999997 36.93527999999999 30.580209999999997 36.93527999999999" stroke-linecap="round" />
</g>
<g transform="matrix(1.2537193661 0 0 1.2537193661 430.2068798046 417.1934974468)" id="rwSVH6ZJ2I1B1HS8YJ7bS"  >
<path style="stroke: rgb(0,0,0); stroke-width: 4; stroke-dasharray: none; stroke-linecap: butt; stroke-dashoffset: 0; stroke-linejoin: miter; stroke-miterlimit: 4; fill: rgb(255,255,255); fill-opacity: 0; fill-rule: nonzero; opacity: 1;"  transform=" translate(0, 0)" d="M -17.19899 -29.94307 C 31.40241 41.73525 14.269540000000003 29.081470000000003 14.269540000000003 29.081470000000003" stroke-linecap="round" />
</g>
<g transform="matrix(1.2537193661 0 0 1.2537193661 491.9332233091 483.7506166169)" id="QFlzBua5TIp5oX5jVezVv"  >
<path style="stroke: rgb(0,0,0); stroke-width: 4; stroke-dasharray: none; stroke-linecap: butt; stroke-dashoffset: 0; stroke-linejoin: miter; stroke-miterlimit: 4; fill: rgb(255,255,255); fill-opacity: 0; fill-rule: nonzero; opacity: 1;"  transform=" translate(0, 0)" d="M -16.78322 -13.06367 C 8.74126 14.20906 16.783209999999997 13.056679999999998 16.783209999999997 13.056679999999998" stroke-linecap="round" />
</g>
<g transform="matrix(1.2537193661 0 0 1.2537193661 522.8867673327 518.0046861292)" id="sPL1gvnBS6WmABe8M68-y"  >
<path style="stroke: rgb(0,0,0); stroke-width: 4; stroke-dasharray: none; stroke-linecap: butt; stroke-dashoffset: 0; stroke-linejoin: miter; stroke-miterlimit: 4; fill: rgb(255,255,255); fill-opacity: 0; fill-rule: nonzero; opacity: 1;"  transform=" translate(0, 0)" d="M 9.22671 14.40604 C -16.29777 -18.111439999999998 -7.90616 -14.26529 -7.90616 -14.26529" stroke-linecap="round" />
</g>
<g transform="matrix(1.2537193661 0 0 1.2537193661 413.9045354877 456.7023210794)" id="yvjRCi9J3l39hLZMGZkQ_"  >
<path style="stroke: rgb(0,0,0); stroke-width: 4; stroke-dasharray: none; stroke-linecap: butt; stroke-dashoffset: 0; stroke-linejoin: miter; stroke-miterlimit: 4; fill: rgb(255,255,255); fill-opacity: 0; fill-rule: nonzero; opacity: 1;"  transform=" translate(0, 0)" d="M -78.67133 -80.43531 C -53.14685 -40.924820000000004 -58.39161 -2.431820000000002 -58.39161 -2.431820000000002 L -23.41377 -2.431820000000002 L -18.81707 15.70825 L 4.430049999999998 15.70825 L 9.440559999999998 37.13811 L 30.467309999999998 34.98076 L 30.467309999999998 47.21852 L 45.454539999999994 51.06467 L 52.7972 65.80243 L 65.05159 65.80243 L 67.51114000000001 78.68705 L 78.67132000000001 80.4353" stroke-linecap="round" />
</g>
<g transform="matrix(1.2537193661 0 0 1.2537193661 209.2937350375 275.7757662666)" id="S2onEgs0mdB4vgi-Ir7BD"  >
<path style="stroke: rgb(0,0,0); stroke-width: 4; stroke-dasharray: none; stroke-linecap: butt; stroke-dashoffset: 0; stroke-linejoin: miter; stroke-miterlimit: 4; fill: rgb(255,255,255); fill-opacity: 0; fill-rule: nonzero; opacity: 1;"  transform=" translate(0, 0)" d="M 0 0" stroke-linecap="round" />
</g>
</svg>