<?xml version="1.0" standalone="no"?>
<!DOCTYPE svg PUBLIC "-//W3C//DTD SVG 20010904//EN"
 "http://www.w3.org/TR/2001/REC-SVG-20010904/DTD/svg10.dtd">
<svg version="1.0" xmlns="http://www.w3.org/2000/svg"
 width="500.000000pt" height="500.000000pt" viewBox="0 0 500.000000 500.000000"
 preserveAspectRatio="xMidYMid meet">

<g transform="translate(0.000000,500.000000) scale(0.100000,-0.100000)"
fill="#000000" stroke="none">
<path d="M2300 4535 c0 -3 16 -20 36 -39 35 -33 36 -36 26 -73 -6 -21 -27 -96
-47 -167 -43 -156 -72 -213 -149 -289 -173 -171 -639 -266 -912 -186 -23 7
-50 9 -60 5 -16 -6 -12 -10 21 -21 22 -7 62 -15 88 -19 125 -15 250 -119 329
-271 132 -257 134 -372 13 -723 -46 -134 -85 -209 -142 -269 -17 -18 -40 -33
-50 -33 -11 0 -28 -8 -37 -19 -16 -18 -16 -18 11 -13 15 3 37 11 48 18 24 14
224 79 276 89 118 22 233 -81 354 -318 l55 -108 0 -157 c0 -86 -3 -174 -6
-195 -6 -36 -8 -37 -25 -21 -22 20 -22 19 -10 -24 13 -45 -1 -40 -21 8 -22 53
-42 53 -23 0 8 -22 10 -40 5 -40 -5 0 -12 11 -16 24 -3 14 -15 33 -27 43 -20
17 -20 17 -14 0 17 -45 20 -70 8 -63 -6 4 -11 15 -11 25 0 25 -39 73 -40 49 0
-9 4 -28 10 -42 13 -36 -5 -42 -20 -7 -14 35 -46 53 -36 21 3 -11 8 -30 11
-42 6 -22 5 -22 -7 -4 -21 30 -49 58 -55 53 -2 -3 3 -19 12 -37 9 -18 13 -35
9 -38 -4 -4 -9 -1 -11 6 -3 7 -16 25 -29 40 l-24 27 14 -42 c18 -51 9 -63 -16
-22 -23 38 -34 32 -20 -10 13 -37 7 -39 -18 -8 -25 30 -36 15 -14 -20 l18 -28
-27 24 c-33 30 -45 22 -22 -13 10 -14 13 -26 7 -26 -6 0 -14 5 -17 10 -12 19
-26 10 -20 -12 6 -19 5 -21 -6 -10 -18 17 -32 15 -25 -3 4 -10 -1 -15 -14 -15
-11 0 -20 -4 -20 -9 0 -5 -12 -14 -27 -20 -16 -6 -44 -24 -63 -40 -42 -35
-268 -158 -372 -203 -73 -31 -197 -68 -231 -68 -10 0 -29 12 -42 26 -16 17
-25 22 -26 13 0 -8 -5 -3 -11 11 -9 21 -12 22 -15 8 -6 -24 -23 -23 -23 1 0
29 -17 34 -24 8 -6 -21 -8 -20 -23 13 l-17 35 -4 -30 -4 -30 -13 33 c-16 37
-35 43 -29 10 3 -15 0 -12 -9 8 -8 18 -21 35 -27 39 -13 8 -11 -5 5 -62 6 -17
5 -17 -7 1 -7 10 -21 28 -31 40 -18 20 -18 20 -12 1 20 -57 19 -61 -9 -30 -20
22 -26 25 -21 10 4 -11 10 -29 13 -40 5 -19 4 -19 -20 3 -32 29 -44 28 -24 -3
9 -14 12 -25 7 -25 -5 0 -13 5 -16 10 -12 19 -26 11 -15 -9 8 -16 6 -22 -6
-29 -11 -6 -13 -12 -6 -16 6 -4 9 -13 6 -20 -4 -10 2 -12 23 -9 27 5 27 5 8
-11 -23 -18 -5 -22 26 -6 21 12 26 1 7 -18 -9 -9 -8 -12 4 -12 9 0 20 5 23 10
3 6 11 10 17 10 6 0 3 -9 -7 -20 -26 -28 -13 -34 18 -9 27 20 38 14 15 -9 -23
-23 3 -25 28 -1 18 17 23 19 18 6 -8 -22 12 -22 25 1 10 16 10 16 11 0 0 -23
19 -23 27 -2 6 15 8 15 20 -2 12 -16 15 -17 24 -4 8 11 12 12 16 2 2 -6 10 -9
16 -5 15 10 14 9 132 28 197 31 345 78 580 185 156 71 260 102 348 102 107 0
154 -4 210 -18 37 -9 75 -12 103 -8 l44 6 -21 -48 c-31 -72 -40 -79 -77 -60
-39 20 -65 20 -119 0 -42 -16 -44 -16 -67 5 l-23 22 -66 -41 c-61 -38 -71 -42
-122 -38 -58 3 -65 -2 -65 -48 0 -16 9 -28 30 -39 39 -20 53 -19 75 5 10 11
43 28 73 36 61 18 106 15 227 -16 86 -22 168 -27 205 -12 14 5 56 24 94 41 75
35 106 34 106 -4 0 -18 7 -25 29 -30 35 -7 67 7 98 44 27 31 34 24 60 -56 16
-50 16 -52 -8 -100 l-24 -48 -50 4 c-27 1 -52 7 -55 11 -3 4 -11 2 -18 -6 -7
-8 -10 -14 -7 -14 3 0 1 -9 -5 -19 -13 -26 -3 -50 26 -61 26 -10 139 30 162
58 9 12 11 12 6 2 -19 -37 -129 -150 -155 -159 -16 -5 -29 -15 -29 -20 0 -12
17 -7 75 19 62 29 172 50 259 50 116 0 280 -27 368 -61 80 -31 188 -104 215
-145 24 -38 29 -136 8 -168 -10 -15 -15 -29 -12 -32 3 -3 18 14 33 38 49 78
145 163 238 208 78 39 93 43 178 47 82 3 102 1 174 -24 52 -18 121 -54 187
-98 90 -60 106 -74 106 -97 1 -42 21 -33 21 9 0 20 5 75 11 122 l11 86 -61
124 -60 124 -140 113 c-152 122 -247 189 -355 249 -38 21 -88 53 -112 71 -38
29 -49 33 -86 29 -24 -3 -95 3 -158 13 l-114 18 114 56 c63 32 136 62 162 69
56 13 118 5 118 -16 0 -20 19 -19 41 1 9 8 23 17 31 18 7 1 27 9 43 18 37 19
141 42 155 33 5 -3 10 2 10 12 0 11 5 24 12 31 21 21 -26 59 -83 66 -27 4 -49
11 -49 16 0 19 -67 43 -130 47 -36 2 -83 5 -105 6 -22 1 -46 6 -54 11 -10 7
-12 2 -6 -25 l6 -34 -20 33 c-25 39 -34 42 -21 6 16 -40 12 -41 -20 -4 -31 37
-41 31 -14 -8 9 -13 13 -26 9 -30 -4 -4 -10 -2 -12 5 -7 19 -45 64 -50 59 -2
-2 3 -18 12 -36 9 -18 14 -34 11 -37 -2 -3 -11 8 -20 24 -15 31 -46 62 -46 47
1 -5 7 -20 15 -34 25 -43 16 -56 -14 -20 -31 38 -53 36 -27 -2 25 -35 19 -46
-9 -15 -30 32 -51 37 -35 8 5 -11 15 -23 20 -26 6 -3 10 -14 10 -23 0 -12 -8
-8 -28 16 -32 38 -52 43 -28 7 9 -13 16 -32 16 -41 0 -12 -5 -10 -21 10 -26
33 -47 34 -25 1 23 -35 20 -53 -4 -27 -32 34 -44 26 -19 -11 21 -30 21 -31 2
-14 -26 23 -56 19 -65 -8 -6 -19 -6 -19 -7 2 -1 12 -6 25 -13 29 -8 5 -9 0 -6
-14 4 -12 2 -22 -3 -22 -5 0 -9 11 -9 25 0 14 -5 25 -11 25 -6 0 -9 -9 -6 -20
3 -11 1 -23 -4 -26 -5 -3 -9 8 -9 25 0 38 -20 52 -21 14 -1 -20 -3 -22 -6 -8
-10 45 -16 50 -23 20 l-8 -30 -1 32 c-2 47 -21 52 -22 6 -1 -27 -3 -31 -6 -13
-3 14 -11 44 -19 68 -22 68 -18 187 10 270 53 155 156 312 206 312 21 0 21 0
0 115 -5 28 -14 82 -20 120 -54 365 -99 572 -185 864 -25 85 -45 167 -45 182
0 15 -15 49 -34 76 -19 28 -62 99 -97 159 -176 307 -167 297 -407 493 -148
121 -202 157 -202 136z m990 -2840 c10 -12 10 -15 -4 -15 -9 0 -16 7 -16 15 0
8 2 15 4 15 2 0 9 -7 16 -15z m-693 -471 c-3 -3 -12 -4 -19 -1 -8 3 -5 6 6 6
11 1 17 -2 13 -5z m28 -234 c3 -5 1 -10 -4 -10 -6 0 -11 5 -11 10 0 6 2 10 4
10 3 0 8 -4 11 -10z"/>
</g>
</svg>
